<?xml version="1.0" standalone="no"?>
<!DOCTYPE svg PUBLIC "-//W3C//DTD SVG 1.1//EN" "http://www.w3.org/Graphics/SVG/1.1/DTD/svg11.dtd" >
<svg xmlns="http://www.w3.org/2000/svg" xmlns:xlink="http://www.w3.org/1999/xlink" version="1.1">
<metadata>
Created by FontForge 20170731 at Fri Jun 15 06:45:24 2018
 By Aleksey,,,
</metadata>
<defs>
<font id="Ocarina" horiz-adv-x="1000" >
  <font-face 
    font-family="Ocarina"
    font-weight="400"
    font-stretch="normal"
    units-per-em="1000"
    panose-1="2 0 5 3 0 0 0 0 0 0"
    ascent="800"
    descent="-200"
    x-height="483"
    cap-height="739"
    bbox="0 -234 963 829"
    underline-thickness="50"
    underline-position="-200"
    unicode-range="U+0021-00A5"
  />
<missing-glyph horiz-adv-x="500" 
d="M50 0v533h400v-533h-400zM100 50h300v433h-300v-433z" />
    <glyph glyph-name=".notdef" horiz-adv-x="500" 
d="M50 0v533h400v-533h-400zM100 50h300v433h-300v-433z" />
    <glyph glyph-name=".null" horiz-adv-x="0" 
 />
    <glyph glyph-name="nonmarkingreturn" horiz-adv-x="333" 
 />
    <glyph glyph-name="exclam" unicode="!" horiz-adv-x="500" 
d="M384 731l-148 -520l-40 6l36 540zM265 63q0 -32 -21 -54t-52 -22t-52 22t-21 54t21 54t52 22t52 -22t21 -54z" />
    <glyph glyph-name="quotedbl" unicode="&#x22;" horiz-adv-x="500" 
d="M392 701q0 -45 -26.5 -85t-75.5 -58l-15 19q77 31 87 114q-6 -14 -22 -22t-31 -8q-30 0 -50 21t-20 52q0 30 20 50t50 20q36 0 59.5 -24.5t23.5 -78.5zM210 701q0 -45 -26.5 -85t-75.5 -58l-15 19q77 31 87 114q-6 -14 -22 -22t-31 -8q-30 0 -50 21t-20 52q0 30 20 50
t50 20q36 0 59.5 -24.5t23.5 -78.5z" />
    <glyph glyph-name="numbersign" unicode="#" horiz-adv-x="500" 
d="M473 468h-97l-20 -163h81v-109h-95l-24 -196h-66l24 196h-102l-24 -196h-66l24 196h-76v109h89l20 163h-73v109h87l20 162h67l-20 -162h101l20 162h67l-20 -162h83v-109zM309 468h-101l-20 -163h101z" />
    <glyph glyph-name="dollar" unicode="$" horiz-adv-x="500" 
d="M478 195q0 -86 -53 -142t-148 -67v-104h-54v101q-104 4 -202 70l25 77q30 -44 79.5 -70t97.5 -26v290l-24 12q-99 45 -133.5 96t-34.5 128q0 81 50.5 134.5t141.5 60.5v59h54v-60q86 -7 162 -52l-19 -77q-70 75 -143 83v-262q104 -52 152.5 -109.5t48.5 -141.5zM223 473
v235q-46 -7 -66.5 -35t-20.5 -67q0 -50 14.5 -75t72.5 -58zM366 157q0 42 -19.5 74.5t-69.5 63.5v-255q89 22 89 117z" />
    <glyph glyph-name="percent" unicode="%" horiz-adv-x="500" 
d="M260 573q0 -81 -33.5 -132t-89.5 -51t-89.5 51t-33.5 132t33.5 132t89.5 51t89.5 -51t33.5 -132zM459 739l-354 -739h-65l354 739h65zM486 165q0 -81 -33.5 -131.5t-89.5 -50.5t-89.5 50.5t-33.5 131.5t33.5 132t89.5 51t89.5 -51t33.5 -132zM177 573q0 153 -40 153
t-40 -153t40 -153t40 153zM403 165q0 153 -40 153t-40 -153t40 -153t40 153z" />
    <glyph glyph-name="ampersand" unicode="&#x26;" horiz-adv-x="500" 
d="M502 60l-58 -104q-27 16 -63.5 47.5t-58.5 58.5q-22 -33 -60 -56t-85 -23q-79 0 -124.5 44t-45.5 131q0 59 40.5 122.5t87.5 96.5q-56 127 -56 207q0 71 39.5 121.5t112.5 50.5q155 0 155 -156q0 -44 -43.5 -102t-108.5 -98q39 -102 115 -207q30 60 51 141.5t22 148.5h61
q0 -2 -6.5 -35t-8.5 -40.5t-9 -39t-11 -45t-12.5 -41t-16 -45t-18 -40t-22.5 -41.5q45 -56 123 -96zM293 605q0 101 -53 101q-28 0 -42.5 -32t-14.5 -80q0 -59 35 -152q37 30 56 75.5t19 87.5zM286 106q-91 121 -132 224q-35 -60 -35 -156q0 -53 20.5 -82t51.5 -29
q52 0 95 43z" />
    <glyph glyph-name="quotesingle" unicode="'" horiz-adv-x="500" 
d="M243 701q0 -44 -28.5 -84.5t-77.5 -58.5l-15 19q42 17 64.5 48t26.5 66q-6 -14 -23 -22t-32 -8q-31 0 -52 21t-21 52q0 30 21 50t52 20q37 0 61 -24.5t24 -78.5z" />
    <glyph glyph-name="parenleft" unicode="(" horiz-adv-x="500" 
d="M460 -141l-20 -19q-93 76 -154.5 208t-61.5 286q0 151 62 285.5t154 209.5l20 -20q-55 -70 -95 -201.5t-40 -273.5q0 -141 40 -272.5t95 -202.5z" />
    <glyph glyph-name="parenright" unicode=")" horiz-adv-x="500" 
d="M277 334q0 -154 -61.5 -286t-154.5 -208l-20 20q55 70 95 201.5t40 272.5q0 142 -40 273.5t-95 201.5l20 20q92 -75 154 -209.5t62 -285.5z" />
    <glyph glyph-name="asterisk" unicode="*" horiz-adv-x="500" 
d="M478 444l-171 -69l169 -69l-69 -120l-129 141l40 -232h-139l42 230l-131 -140l-70 120l172 69l-170 72l69 120l129 -142l-40 231h138l-41 -231l132 140z" />
    <glyph glyph-name="plus" unicode="+" horiz-adv-x="500" 
d="M463 213h-179v-213h-69v213h-184v66h184v204h69v-204h179v-66z" />
    <glyph glyph-name="comma" unicode="," horiz-adv-x="500" 
d="M241 37q0 -45 -28.5 -86.5t-77.5 -61.5l-15 19q41 17 64 48.5t27 64.5q-6 -14 -22.5 -21.5t-32.5 -7.5q-31 0 -52 22t-21 54t21 54t52 22q37 0 61 -25.5t24 -81.5z" />
    <glyph glyph-name="hyphen" unicode="-" horiz-adv-x="500" 
d="M418 211h-334v72h334v-72z" />
    <glyph glyph-name="period" unicode="." horiz-adv-x="500" 
d="M238 72q0 -32 -21 -54t-52 -22t-52 22t-21 54t21 54t52 22t52 -22t21 -54z" />
    <glyph glyph-name="slash" unicode="/" horiz-adv-x="500" 
d="M435 813l-305 -942h-66l306 942h65z" />
    <glyph glyph-name="zero" unicode="0" 
d="M824 359q0 -100 -25 -174t-70.5 -117.5t-102.5 -64t-126 -20.5t-126 22.5t-102 67.5t-70.5 120.5t-25.5 175.5q0 195 90.5 291t233.5 96q142 0 233 -100.5t91 -296.5zM685 359q0 88 -22.5 166.5t-65.5 129.5t-97 51q-81 0 -133 -101t-52 -236t52 -236t133 -101
q82 0 133.5 96.5t51.5 230.5z" />
    <glyph glyph-name="one" unicode="1" 
d="M571 0h-129v658l-109 -36v52l238 82v-756z" />
    <glyph glyph-name="two" unicode="2" 
d="M805 106l-20 -104h-558v77q142 126 242 226q13 13 40 39.5t39 38.5t32 34t29 35.5t20 32.5t15 36.5t4 35.5q0 62 -47 101.5t-119 39.5q-49 0 -110 -35.5t-100 -85.5l-36 19q102 160 278 160q131 0 199 -56t68 -144q0 -17 -4 -34t-8.5 -30.5t-15.5 -30.5t-18.5 -28
t-25 -28t-26 -26t-31 -27.5t-31.5 -25.5t-35 -27.5t-34 -26.5q-148 -115 -210 -167z" />
    <glyph glyph-name="three" unicode="3" 
d="M785 254q0 -70 -42.5 -122t-121.5 -83t-176.5 -48t-223.5 -23l-12 38q125 12 222.5 41t159.5 80t62 116q0 59 -60.5 92t-149.5 33q-29 0 -66 -5l-14 41q248 76 248 171q0 56 -37 83t-119 27q-45 0 -99.5 -24.5t-89.5 -62.5l-28 15q91 133 260 133q122 0 182.5 -45.5
t60.5 -117.5q0 -135 -264 -179q42 6 79 6q105 0 167 -44t62 -122z" />
    <glyph glyph-name="four" unicode="4" 
d="M842 190h-112v-190h-119v190h-414v94l428 455h105v-455h112v-94zM611 284v373l-356 -373h356z" />
    <glyph glyph-name="five" unicode="5" 
d="M783 277q0 -132 -142 -208t-405 -90l-12 37q187 22 308 92t121 161q0 132 -389 132l103 328h406l-29 -105h-359l-46 -139q213 0 328.5 -52t115.5 -156z" />
    <glyph glyph-name="six" unicode="6" 
d="M789 216q0 -109 -78 -171t-206 -62q-127 0 -208.5 81t-81.5 249q0 202 142 325t407 148l11 -40q-78 -12 -152 -42t-135.5 -75t-100.5 -108.5t-43 -135.5q25 23 77.5 40t113.5 17q112 0 183 -67t71 -159zM667 210q0 71 -51.5 124.5t-117.5 53.5q-42 0 -91.5 -18.5
t-64.5 -41.5q0 -136 46.5 -219t117.5 -83q63 0 112 50t49 134z" />
    <glyph glyph-name="seven" unicode="7" 
d="M789 729l-330 -729h-71l283 617h-455l23 112h550z" />
    <glyph glyph-name="eight" unicode="8" 
d="M802 198q0 -95 -74.5 -152t-226.5 -57q-154 0 -228.5 54.5t-74.5 151.5q0 70 60 120t146 76q-178 66 -178 179q0 77 67.5 131.5t207.5 54.5q143 0 208 -50.5t65 -128.5q0 -105 -190 -159q107 -50 162.5 -102.5t55.5 -117.5zM658 583q0 55 -43 92.5t-114 37.5
q-66 0 -110 -35t-44 -90q0 -40 46 -72.5t130 -66.5q55 24 95 59t40 75zM673 180q0 41 -58 89t-160 92q-59 -31 -100 -74.5t-41 -90.5q0 -67 51.5 -115.5t137.5 -48.5q85 0 127.5 43t42.5 105z" />
    <glyph glyph-name="nine" unicode="9" 
d="M789 425q0 -202 -143.5 -320.5t-405.5 -130.5l-11 39q80 11 153.5 37.5t135 68t100 102t42.5 132.5q-25 -26 -80 -41.5t-116 -15.5q-110 0 -179.5 67t-69.5 159q0 108 78 171t201 63q58 0 109.5 -19t93.5 -57t67 -103.5t25 -151.5zM662 410q0 131 -49.5 216.5
t-119.5 85.5q-60 0 -108 -50t-48 -134q0 -71 52 -124.5t112 -53.5q44 0 97.5 19t63.5 41z" />
    <glyph glyph-name="colon" unicode=":" horiz-adv-x="500" 
d="M322 425q0 -32 -21 -54.5t-52 -22.5t-52 22.5t-21 54.5t21 54t52 22t52 -22t21 -54zM322 72q0 -32 -21 -54t-52 -22t-52 22t-21 54t21 54t52 22t52 -22t21 -54z" />
    <glyph glyph-name="semicolon" unicode=";" horiz-adv-x="500" 
d="M324 425q0 -32 -21 -54.5t-52 -22.5t-52 22.5t-21 54.5t21 54t52 22t52 -22t21 -54zM335 37q0 -45 -28.5 -86.5t-77.5 -61.5l-15 19q41 17 64 48.5t27 64.5q-6 -14 -22.5 -21.5t-32.5 -7.5q-31 0 -52 22t-21 54t21 54t52 22q37 0 61 -25.5t24 -81.5z" />
    <glyph glyph-name="less" unicode="&#x3c;" horiz-adv-x="500" 
d="M418 10l-25 -27l-309 258l309 259l25 -28l-206 -231z" />
    <glyph glyph-name="equal" unicode="=" horiz-adv-x="500" 
d="M441 294h-382v63h382v-63zM441 143h-382v63h382v-63z" />
    <glyph glyph-name="greater" unicode="&#x3e;" horiz-adv-x="500" 
d="M414 241l-309 -258l-25 27l206 231l-206 231l25 28z" />
    <glyph glyph-name="question" unicode="?" horiz-adv-x="500" 
d="M485 558q0 -97 -62 -166.5t-154 -85.5v-91h-33l-32 143q79 15 121.5 70.5t42.5 130.5q0 76 -33 113.5t-92 37.5q-63 0 -104.5 -45t-62.5 -123l-61 65q33 66 98.5 107.5t144.5 41.5q100 0 163.5 -54t63.5 -144zM326 63q0 -32 -21 -54t-52 -22t-52 22t-21 54t21 54t52 22
t52 -22t21 -54z" />
    <glyph glyph-name="at" unicode="@" horiz-adv-x="500" 
d="M487 139q-35 -63 -96.5 -109.5t-140.5 -46.5q-236 0 -236 386q0 171 60.5 279t176.5 108q67 0 114.5 -29t73 -80.5t37 -111t11.5 -132.5q0 -234 -115 -234q-31 0 -49.5 16.5t-23.5 38.5q-24 -53 -85 -53q-45 0 -73.5 39t-28.5 116q0 112 36.5 186t99.5 74q39 0 59 -27
l2 17h76l-25 -292q-1 -10 -1 -27q0 -44 17 -44q42 0 42 178q0 143 -38.5 219.5t-128.5 76.5q-76 0 -120.5 -88.5t-44.5 -236.5q0 -156 43 -237t125 -81q130 0 214 114zM302 510q-15 33 -42 33q-32 0 -52 -62t-20 -159q0 -103 49 -103q31 0 46 47z" />
    <glyph glyph-name="A" unicode="A" 
d="M878 0h-161l-103 262h-305q-56 -128 -108 -262h-72q131 293 318 739l95 24zM598 307l-136 334q-9 -22 -64.5 -158t-71.5 -176h272z" />
    <glyph glyph-name="B" unicode="B" 
d="M792 208q0 -92 -68.5 -150t-164.5 -58h-338v739h289q88 0 145.5 -46.5t57.5 -121.5q0 -57 -32.5 -104t-91.5 -61q87 0 145 -57t58 -141zM582 564q0 132 -113 132h-113v-266h101q55 0 90 35.5t35 98.5zM660 211q0 84 -46 131t-122 47h-136v-345h142q70 0 116 44t46 123z
" />
    <glyph glyph-name="C" unicode="C" 
d="M827 38q-37 -21 -106.5 -38t-128.5 -17q-204 0 -319.5 92.5t-115.5 291.5q0 96 35.5 172.5t94.5 122.5t131.5 70t151.5 24q118 0 243 -47l-22 -77q-47 43 -98 61.5t-119 18.5q-121 0 -197 -74t-76 -236q0 -194 75.5 -285t211.5 -91q116 0 229 95z" />
    <glyph glyph-name="D" unicode="D" 
d="M870 370q0 -101 -33 -175t-92 -115.5t-130 -60.5t-157 -19h-251v739h243q80 0 152 -20t133.5 -61.5t98 -115.5t36.5 -172zM732 373q0 88 -27.5 152.5t-74.5 100.5t-102.5 52.5t-120.5 16.5h-65v-651h80q63 0 114.5 15t97.5 50t72 102t26 162z" />
    <glyph glyph-name="E" unicode="E" 
d="M768 0h-528v739q346 0 499 5v-67q-100 15 -364 15v-271q192 0 304 10v-69q-108 10 -304 10v-320q260 0 393 20v-72z" />
    <glyph glyph-name="F" unicode="F" 
d="M762 677q-100 15 -367 15v-273q195 0 307 10v-65q-108 10 -307 10v-374h-135v739q349 0 502 5v-67z" />
    <glyph glyph-name="G" unicode="G" 
d="M845 38q-47 -24 -120 -39.5t-135 -15.5q-204 0 -317 92.5t-113 291.5q0 96 34.5 172.5t93 122.5t130 70t150.5 24q118 0 243 -47l-22 -77q-47 43 -98 61.5t-119 18.5q-121 0 -197 -74t-76 -236q0 -194 75.5 -285t211.5 -91q72 0 125 23v272q-69 0 -124 -5v59
q130 -10 258 -10v-327z" />
    <glyph glyph-name="H" unicode="H" 
d="M789 0h-135v356h-305v-356h-135v739h135v-330h305v330h135v-739z" />
    <glyph glyph-name="I" unicode="I" 
d="M568 0h-137v739h137v-739z" />
    <glyph glyph-name="J" unicode="J" 
d="M706 184q0 -375 -356 -375q-50 0 -112 8l11 72q51 -34 121 -34q61 0 110 32.5t72 104.5q19 61 19 220v527h135v-555z" />
    <glyph glyph-name="K" unicode="K" 
d="M839 0h-157q-45 57 -147 176.5t-160 182.5v-359h-133v739h135v-311q72 61 184.5 162.5t161.5 148.5h87q-55 -46 -175 -151t-176 -156q99 -120 380 -432z" />
    <glyph glyph-name="L" unicode="L" 
d="M766 0h-490v739h140v-687q217 0 350 20v-72z" />
    <glyph glyph-name="M" unicode="M" 
d="M874 0h-135v603q-181 -424 -249 -593h-63q-153 409 -241 621q-1 -126 -1 -243v-83q2 -213 11 -305h-74q9 133 10 303q1 57 1 189l-1 247l138 17q101 -282 224 -599q135 316 239 582h141v-739z" />
    <glyph glyph-name="N" unicode="N" 
d="M799 739q-9 -133 -10 -303v-189v-247h-60q-143 211 -462 645v-193v-147q2 -224 10 -305h-74q7 102 10 303q1 56 1 188l-1 248l132 16q28 -39 189 -262.5t201 -280.5v126v96q-4 246 -10 305h74z" />
    <glyph glyph-name="O" unicode="O" 
d="M884 368q0 -179 -99 -282t-284 -103q-184 0 -283.5 103.5t-99.5 281.5t100 283t283 105q185 0 284 -104.5t99 -283.5zM745 338q0 160 -67.5 267t-176.5 107q-112 0 -178 -80.5t-66 -233.5q0 -159 68.5 -265.5t175.5 -106.5q113 0 178.5 79t65.5 233z" />
    <glyph glyph-name="P" unicode="P" 
d="M811 522q0 -103 -70.5 -159.5t-169.5 -56.5h-170v-306h-135v739h305q99 0 169.5 -56.5t70.5 -160.5zM671 522q0 79 -46.5 125t-115.5 46h-108v-341h108q69 0 115.5 45.5t46.5 124.5z" />
    <glyph glyph-name="Q" unicode="Q" 
d="M924 -151l-5 -23q-121 0 -199.5 23t-134.5 72q-41 36 -57 62h-27q-184 0 -283.5 103.5t-99.5 281.5t100 283t283 105q185 0 284 -104.5t99 -283.5q0 -132 -54.5 -224.5t-159.5 -133.5q12 -22 25 -37q80 -98 229 -124zM745 338q0 160 -67.5 267t-176.5 107
q-112 0 -178 -80.5t-66 -233.5q0 -159 68.5 -265.5t175.5 -106.5q113 0 178.5 79t65.5 233z" />
    <glyph glyph-name="R" unicode="R" 
d="M887 -30l-11 -31q-205 44 -313 164q-47 52 -83.5 113t-52.5 110h-56v-326h-135v739h312q101 0 170 -52t69 -155q0 -87 -62.5 -142.5t-162.5 -57.5q33 -89 114 -196q84 -111 211 -166zM647 532q0 78 -45.5 119.5t-116.5 41.5h-114v-321h114q71 0 116.5 41t45.5 119z" />
    <glyph glyph-name="S" unicode="S" 
d="M791 195q0 -99 -76 -155.5t-226 -56.5q-138 0 -264 70l30 77q35 -44 97 -70t130 -26q90 0 134 33t44 90q0 53 -46.5 95t-159.5 82q-119 42 -168 96.5t-49 129.5q0 89 64.5 142.5t195.5 53.5q130 0 236 -54l-22 -77q-93 85 -203 85q-80 0 -114.5 -29t-34.5 -75
q0 -55 33.5 -87t146.5 -73q133 -49 192.5 -107t59.5 -144z" />
    <glyph glyph-name="T" unicode="T" 
d="M784 676q-81 15 -217 15v-691h-135v691q-136 0 -217 -15v67q89 -4 286 -4q186 0 283 4v-67z" />
    <glyph glyph-name="U" unicode="U" 
d="M793 739q-9 -134 -10 -295v-192q0 -52 -12 -97t-39 -85t-77.5 -63.5t-120.5 -23.5q-314 0 -314 269v487h130v-487q0 -103 49.5 -158t138.5 -55q90 0 140.5 55t50.5 158v190q0 197 -10 297h74z" />
    <glyph glyph-name="V" unicode="V" 
d="M816 739q-34 -90 -139.5 -384t-127.5 -355h-65l-312 739h164l219 -569q118 333 191 569h70z" />
    <glyph glyph-name="W" unicode="W" 
d="M963 739q-193 -664 -214 -739h-65l-187 587l-158 -587h-65l-237 739h164l144 -528l130 508l118 18l161 -528q100 363 140 530h69z" />
    <glyph glyph-name="X" unicode="X" 
d="M819 0h-165l-178 306q-84 -118 -204 -306h-79q44 59 130 183t119 176l-230 380h163l156 -280q100 148 175 280h78q-122 -178 -218 -329z" />
    <glyph glyph-name="Y" unicode="Y" 
d="M780 739q-125 -242 -211 -423v-316h-135v310l-228 429h162l170 -362q102 199 170 362h72z" />
    <glyph glyph-name="Z" unicode="Z" 
d="M779 739l-389 -687q259 0 379 24v-76h-569l397 692q-239 0 -359 -15v67z" />
    <glyph glyph-name="bracketleft" unicode="[" horiz-adv-x="500" 
d="M460 -138l-197 1v943h197v-53l-103 10v-857l103 10v-54z" />
    <glyph glyph-name="bracketright" unicode="]" horiz-adv-x="500" 
d="M237 -138l-197 1v53l103 -10v857l-103 -10v53h197v-944z" />
    <glyph glyph-name="asciicircum" unicode="^" horiz-adv-x="500" 
d="M428 630l-26 -23l-151 110l-151 -110l-26 23l136 175h82z" />
    <glyph glyph-name="underscore" unicode="_" horiz-adv-x="500" 
d="M500 -209l-500 1v52h500v-53z" />
    <glyph glyph-name="grave" unicode="`" horiz-adv-x="500" 
d="M440 635q0 -30 -21 -50t-52 -20q-37 0 -61 24.5t-24 78.5q0 44 28.5 84.5t77.5 58.5l15 -19q-42 -17 -64.5 -48t-26.5 -66q6 14 23 22t32 8q31 0 52 -21t21 -52z" />
    <glyph glyph-name="a" unicode="a" 
d="M739 6l-121 -17q-18 21 -22 64q-57 -64 -152 -64q-159 0 -159 125q0 46 21.5 80.5t64 56.5t90.5 36t118 26q0 86 -15.5 116t-57.5 30q-102 0 -172 -91l-33 70q83 63 225 63q90 0 133 -37.5t43 -127.5v-228q0 -24 11 -55.5t26 -46.5zM581 97v176q-96 -23 -141.5 -57
t-45.5 -97q0 -34 27.5 -54.5t64.5 -20.5q50 0 95 53z" />
    <glyph glyph-name="b" unicode="b" 
d="M768 259q0 -116 -54.5 -193t-149.5 -77q-107 0 -185 40l-95 -29v760l122 19v-341q47 63 164 63q82 0 140 -64t58 -178zM643 226q0 222 -134 222q-40 0 -73 -30.5t-33 -75.5v-247q11 -27 47 -49t65 -22q62 0 95 54t33 148z" />
    <glyph glyph-name="c" unicode="c" 
d="M714 127q-18 -62 -68.5 -100t-130.5 -38q-117 0 -191 68.5t-74 188.5t75 187.5t190 67.5q102 0 175 -61l-23 -79q-57 104 -161 104q-52 0 -89.5 -47t-37.5 -131q0 -117 45 -178.5t114 -61.5q110 0 154 94z" />
    <glyph glyph-name="d" unicode="d" 
d="M734 0h-110v62q-58 -73 -174 -73q-83 0 -145.5 64.5t-62.5 178.5q0 111 67.5 190t165.5 79q91 0 134 -34v294l125 19v-780zM616 148v263q-14 23 -50.5 38.5t-68.5 15.5q-56 0 -93.5 -55.5t-37.5 -145.5q0 -112 36.5 -167t99.5 -55q41 0 77.5 31.5t36.5 74.5z" />
    <glyph glyph-name="e" unicode="e" 
d="M728 254h-341q6 -101 52 -154t105 -53q103 0 154 92l22 -12q-45 -138 -199 -138q-117 0 -191 68.5t-74 188.5q0 121 69.5 188t182.5 67q93 0 156.5 -64.5t63.5 -182.5zM597 292q0 87 -27.5 130t-73.5 43q-47 0 -79 -45t-32 -128h212z" />
    <glyph glyph-name="f" unicode="f" 
d="M778 767l-50 -69q-17 30 -41 45t-45 15q-57 0 -84 -70.5t-27 -185.5v-12q75 0 122 5v-51q-42 5 -122 5v-449h-122v449q-31 0 -79 -5v51q43 -5 79 -5v13q0 136 71 216.5t157 80.5q91 0 141 -33z" />
    <glyph glyph-name="g" unicode="g" 
d="M739 78q0 -157 -86 -229q-68 -57 -191 -57q-93 0 -163 31l24 68q58 -55 130 -55q74 0 127 59q25 28 32 66t7 100v30q-18 -30 -60 -46.5t-96 -16.5q-82 0 -145 60.5t-63 163.5q0 106 60.5 177.5t169.5 71.5q99 0 156 -44l98 34v-413zM621 187v207q-12 29 -43 50t-60 21
q-64 0 -101 -50t-37 -134q0 -200 138 -200q40 0 71.5 30.5t31.5 75.5z" />
    <glyph glyph-name="h" unicode="h" 
d="M720 0h-122v329q0 118 -86 118q-61 0 -106 -62v-385h-122v761l122 18v-343q23 26 61.5 45.5t84.5 19.5q92 0 130 -42.5t38 -131.5v-327z" />
    <glyph glyph-name="i" unicode="i" 
d="M571 643q0 -32 -21 -54.5t-52 -22.5t-52 22.5t-21 54.5t21 54t52 22t52 -22t21 -54zM559 0h-122v483l122 19v-502z" />
    <glyph glyph-name="j" unicode="j" 
d="M607 643q0 -32 -21 -54.5t-52 -22.5t-52 22.5t-21 54.5t21 54t52 22t52 -22t21 -54zM595 125q0 -116 -73.5 -211.5t-206.5 -122.5l-13 27q171 90 171 295v370l122 19v-377z" />
    <glyph glyph-name="k" unicode="k" 
d="M769 0h-145l-190 242v-242h-119v761l122 18v-486q129 105 219 190h77q-130 -106 -219 -181z" />
    <glyph glyph-name="l" unicode="l" 
d="M563 0h-124v761l124 18v-779z" />
    <glyph glyph-name="m" unicode="m" 
d="M844 0h-122v329q0 63 -16.5 90.5t-54.5 27.5q-48 0 -96 -62q4 -23 4 -58v-327h-120v329q0 63 -17 90.5t-54 27.5q-43 0 -88 -62v-385h-122v483l122 18v-65q18 26 52 45.5t75 19.5q59 0 89.5 -18t46.5 -57q24 34 63.5 54.5t83.5 20.5q89 0 121.5 -41.5t32.5 -132.5v-327z
" />
    <glyph glyph-name="n" unicode="n" 
d="M718 0h-122v329q0 118 -82 118q-65 0 -110 -62v-385h-122v483l118 18v-65q22 26 63 45.5t87 19.5q92 0 130 -42.5t38 -131.5v-327z" />
    <glyph glyph-name="o" unicode="o" 
d="M760 246q0 -111 -68.5 -184t-186.5 -73q-119 0 -189 71.5t-70 181.5q0 111 68.5 185t186.5 74q119 0 189 -72.5t70 -182.5zM634 216q0 99 -36 174t-96 75q-63 0 -96.5 -50.5t-33.5 -142.5q0 -98 36 -173t96 -75q63 0 96.5 50t33.5 142z" />
    <glyph glyph-name="p" unicode="p" 
d="M761 259q0 -116 -58 -193t-156 -77q-103 0 -148 40v-262h-122v715l114 19v-63q18 29 62.5 46t99.5 17q83 0 145.5 -64t62.5 -178zM636 226q0 222 -137 222q-40 0 -72 -30.5t-32 -75.5v-247q12 -28 45 -49.5t59 -21.5q66 0 101.5 54t35.5 148z" />
    <glyph glyph-name="q" unicode="q" 
d="M730 -234l-122 1v284q-36 -62 -154 -62q-83 0 -145.5 64t-62.5 177q0 117 60 194t170 77q99 0 156 -44l98 34v-725zM612 147v247q-12 28 -43 49.5t-60 21.5q-64 0 -101 -54.5t-37 -147.5q0 -222 138 -222q40 0 71.5 30.5t31.5 75.5z" />
    <glyph glyph-name="r" unicode="r" 
d="M710 479l-18 -97q-14 25 -41 43.5t-59 18.5q-61 0 -106 -79v-365h-122v483l118 18v-86q11 30 48.5 58t87.5 28q55 0 92 -22z" />
    <glyph glyph-name="s" unicode="s" 
d="M727 141q0 -152 -223 -152q-63 0 -122 15.5t-94 38.5l37 68q24 -34 75.5 -57t94.5 -23q114 0 114 72q0 33 -33 59t-140 58q-64 19 -95.5 52t-31.5 87q0 61 52 101.5t133 40.5q135 0 210 -70l-38 -65q-17 39 -64.5 67t-96.5 28q-92 0 -92 -62q0 -32 29 -53.5t104 -44.5
q93 -29 137 -64.5t44 -95.5z" />
    <glyph glyph-name="t" unicode="t" 
d="M658 42q-19 -19 -30.5 -27.5t-38 -17t-63.5 -8.5q-59 0 -92.5 29t-33.5 87v344q-45 0 -85 -5v51q37 -5 85 -5v184l122 18v-202q64 0 112 5v-51q-47 5 -112 5v-343q0 -36 12.5 -51t41.5 -15q38 0 69 26z" />
    <glyph glyph-name="u" unicode="u" 
d="M718 0h-118v53q-21 -25 -62 -44.5t-88 -19.5q-92 0 -130 42t-38 131v321l122 18v-341q0 -118 85 -118q62 0 107 62v379l122 18v-501z" />
    <glyph glyph-name="v" unicode="v" 
d="M739 483q-103 -253 -192 -483h-56l-228 483h138l145 -354q75 192 130 354h63z" />
    <glyph glyph-name="w" unicode="w" 
d="M847 483q-79 -225 -165 -483h-56l-129 350l-108 -350h-56l-180 483h138l98 -325l95 316l77 13l119 -335q58 173 104 331h63z" />
    <glyph glyph-name="x" unicode="x" 
d="M727 0h-142l-107 182q-50 -65 -129 -182h-70q100 125 171 228l-157 255h142l92 -160q69 94 110 160h71q-64 -83 -153 -204z" />
    <glyph glyph-name="y" unicode="y" 
d="M751 483q-49 -108 -202 -472q-57 -134 -129 -169q-58 -29 -162 -29l-10 68q27 -12 70 -12q52 0 82 15q54 28 95 135l-242 464h142l159 -331q80 188 130 331h67z" />
    <glyph glyph-name="z" unicode="z" 
d="M733 483l-296 -440q206 0 293 16v-59h-462l295 440q-200 0 -252 -6v55q50 -4 171 -6h109h142z" />
    <glyph glyph-name="braceleft" unicode="{" horiz-adv-x="500" 
d="M460 -125l-5 -26q-162 0 -162 158v162q0 82 -13 112t-61 42v22q49 14 61.5 43.5t12.5 110.5v163q0 157 160 157l5 -27q-20 0 -33.5 -7.5t-21.5 -19.5t-12 -32.5t-5 -39.5t-1 -48v-166q0 -67 -17.5 -100.5t-69.5 -43.5q52 -14 69.5 -47.5t17.5 -98.5v-164q0 -49 4 -77.5
t21.5 -50.5t49.5 -22z" />
    <glyph glyph-name="bar" unicode="|" horiz-adv-x="500" 
d="M288 -20l-77 1v785h77v-786z" />
    <glyph glyph-name="braceright" unicode="}" horiz-adv-x="500" 
d="M280 323q-48 -12 -61 -42t-13 -112v-162q0 -158 -162 -158l-5 27q32 0 49.5 21.5t21.5 50t4 77.5v164q0 65 17.5 98.5t69.5 47.5q-52 10 -69.5 43.5t-17.5 100.5v166q0 29 -1 48t-5 39.5t-12 32.5t-21.5 19.5t-33.5 7.5l5 27q160 0 160 -157v-163q0 -81 12.5 -110.5
t61.5 -43.5v-22z" />
    <glyph glyph-name="yen" unicode="&#xa5;" horiz-adv-x="500" 
d="M500 739l-173 -361h134v-48h-145v-112h145v-48h-145v-170h-121v170h-156v48h156v112h-156v48h141l-178 361h146l141 -324l147 324h64z" />
  </font>
</defs>
</svg>
